Coordinates
version=1
nRows=4
nColumns=107
inDegrees=yes

Units are S.I. units (second, meters, Newtons, ...)
If the header above contains a line with 'inDegrees', this indicates whether rotational values are in degrees (yes) or radians (no).

endheader
time	sternoclavicular_r2	sternoclavicular_r3	unrotscap_r3	unrotscap_r2	acromioclavicular_r2	acromioclavicular_r3	acromioclavicular_r1	unrothum_r1	unrothum_r3	unrothum_r2	elv_angle	shoulder_elv	shoulder1_r2	shoulder_rot	elbow_flexion	pro_sup	deviation	flexion	proximal_distal_r1	proximal_distal_r3	cmc_flexion	cmc_abduction	mp_flexion	ip_flexion	mcp2_flexion	mcp2_abduction	pm2_flexion	md2_flexion	mcp3_flexion	mcp3_abduction	pm3_flexion	md3_flexion	mcp4_flexion	mcp4_abduction	pm4_flexion	md4_flexion	mcp5_flexion	mcp5_abduction	pm5_flexion	md5_flexion	bicpt_tx	bicpt_ty	bicpt_tz	bicpt2_tx	bicpt2_ty	bicpt2_tz	ptpt_tx	ptpt_ty	ptpt_tz	FCUpt_tx	FCUpt_ty	FCUpt_tz	EDCpt_tx	EDCpt_ty	EDCpt_tz	APLpt_tx	APLpt_ty	APLpt_tz	FPLpt_tx	FPLpt_ty	FPLpt_tz	FPLpt2_tx	FPLpt2_ty	FPLpt2_tz	PEC1pt2_tx	PEC1pt2_ty	PEC1pt2_tz	PEC1pt3_tx	PEC1pt3_ty	PEC1pt3_tz	PEC2pt2_tx	PEC2pt2_ty	PEC2pt2_tz	PEC2pt3_tx	PEC2pt3_ty	PEC2pt3_tz	PEC3pt2_tx	PEC3pt2_ty	PEC3pt2_tz	PEC3pt3_tx	PEC3pt3_ty	PEC3pt3_tz	DELT2pt2a_tx	DELT2pt2a_ty	DELT2pt2a_tz	DELT2pt2_tx	DELT2pt2_ty	DELT2pt2_tz	LAT1pt2_tx	LAT1pt2_ty	LAT1pt2_tz	LAT1pt3_tx	LAT1pt3_ty	LAT1pt3_tz	LAT2pt2_tx	LAT2pt2_ty	LAT2pt2_tz	LAT2pt3_tx	LAT2pt3_ty	LAT2pt3_tz	LAT3pt2_tx	LAT3pt2_ty	LAT3pt2_tz	LAT3pt3_tx	LAT3pt3_ty	LAT3pt3_tz
      0.36666667	     -0.31760427	      0.13452218	     -0.13452218	      0.31760427	     -0.06430840	      0.51971789	      0.23360962	     -0.23360962	     -0.51971789	      0.06430840	    100.66925236	     75.19563307	     -1.75700991	    -33.02382677	     29.81990577	     76.41328058	      0.35209752	     -0.62548164	      0.37637363	     -0.31274082	     39.34543908	    -15.89372620	     -1.71817991	      9.09615316	     99.08667906	     12.97420220	     81.33404149	     70.84972720	     95.48893775	      1.63399458	     82.86556019	     51.07606154	     96.65640204	    -13.45025163	     89.50841810	     41.86745277	     98.17355829	    -14.16716726	     92.16533300	      5.41402811	      0.00088635	     -0.03101782	     -0.00485052	      0.01512576	     -0.01830072	     -0.00265333	      0.00190392	     -0.06855085	     -0.00620550	      0.01165090	     -0.18254933	     -0.00014565	     -0.00916957	      0.00306611	     -0.00047429	      0.00031233	      0.00012493	      0.00062466	      0.00039978	      0.00119935	      0.00067464	     -0.00001120	     -0.00012361	     -0.00014833	      0.00246475	      0.00864751	      0.00601566	     -0.00806265	      0.01946733	     -0.01846472	      0.00246475	      0.00864751	      0.00601566	      0.00054308	      0.01804697	     -0.00948301	      0.00391100	      0.00480877	      0.01587662	      0.00000000	      0.00756063	      0.00000000	     -0.00706004	     -0.03262658	     -0.00623283	      0.02015737	     -0.00086156	     -0.00902505	     -0.00087728	      0.01470494	     -0.00601566	      0.00242297	      0.02122190	     -0.01754566	     -0.00589033	      0.01274149	     -0.00538902	     -0.01228196	      0.02690335	     -0.03012005	     -0.02306001	      0.01424541	     -0.00722714	     -0.01528979	      0.03108089	     -0.03763962
      0.40000000	     -0.32184896	      0.13632003	     -0.13632003	      0.32184896	     -0.06516787	      0.52666379	      0.23673175	     -0.23673175	     -0.52666379	      0.06516787	     99.56108057	     76.20060323	     -1.73766866	    -27.71907575	     29.38820106	     71.25697274	      0.36795675	     -0.62253200	      0.38854968	     -0.31126600	     38.24065578	    -15.76792642	     -0.48153289	      7.84036883	     98.87171108	     12.87448912	     81.33781987	     72.47465912	     95.42217504	      1.30940370	     83.03769817	     52.14923999	     96.72293005	    -13.49238935	     89.65108733	     41.97458042	     98.84046331	    -14.16978229	     92.20832558	      5.39395026	      0.00087207	     -0.03096834	     -0.00484255	      0.01551530	     -0.01818345	     -0.00344842	      0.00228491	     -0.06830449	     -0.00579013	      0.01107791	     -0.18270614	     -0.00024045	     -0.00855082	      0.00280250	     -0.00034271	      0.00031239	      0.00012496	      0.00062478	      0.00039986	      0.00119958	      0.00067477	     -0.00001212	     -0.00014362	     -0.00017234	      0.00249769	      0.00876308	      0.00609605	     -0.00817040	      0.01972751	     -0.01871150	      0.00249769	      0.00876308	      0.00609605	      0.00055034	      0.01828816	     -0.00960975	      0.00394921	      0.00487304	      0.01597075	      0.00000000	      0.00776549	      0.00000000	     -0.00715440	     -0.03306262	     -0.00640292	      0.01783209	     -0.00068001	     -0.00642054	     -0.00088901	      0.01490146	     -0.00609605	      0.00245535	      0.02150552	     -0.01778016	     -0.00596905	      0.01291178	     -0.00546105	     -0.01244611	      0.02726291	     -0.03052260	     -0.02336820	      0.01443579	     -0.00732373	     -0.01549414	      0.03149628	     -0.03814267
      0.43333333	     -0.31366229	      0.13285254	     -0.13285254	      0.31366229	     -0.06351023	      0.51326736	      0.23071015	     -0.23071015	     -0.51326736	      0.06351023	    101.67458901	     74.26233471	     -1.77455634	    -37.93101320	     30.54902542	     80.93643041	      0.33261223	     -0.62178251	      0.36084950	     -0.31089126	     39.33426887	    -15.96365299	     -1.29630558	      9.69859631	     98.79285317	     13.04214584	     81.71446453	     69.95226223	     94.98476830	      1.87542554	     83.15092018	     50.76217936	     95.93925484	    -13.36945302	     90.08739853	     42.12904814	     96.98494625	    -14.15733295	     92.90636182	      5.41113084	      0.00091047	     -0.03110139	     -0.00486398	      0.01473399	     -0.01849879	     -0.00192519	      0.00156971	     -0.06876695	     -0.00656986	      0.01216027	     -0.18240557	     -0.00004602	     -0.00971235	      0.00330410	     -0.00060158	      0.00031240	      0.00012496	      0.00062480	      0.00039987	      0.00119962	      0.00067478	     -0.00001121	     -0.00012381	     -0.00014857	      0.00243416	      0.00854018	      0.00594099	     -0.00796258	      0.01922571	     -0.01823554	      0.00243416	      0.00854018	      0.00594099	      0.00053634	      0.01782298	     -0.00936531	      0.00387517	      0.00474908	      0.01578702	      0.00000000	      0.00737291	      0.00000000	     -0.00697241	     -0.03222163	     -0.00607692	      0.02197317	     -0.00103586	     -0.01171272	     -0.00086639	      0.01452242	     -0.00594099	      0.00239290	      0.02095850	     -0.01732789	     -0.00581722	      0.01258335	     -0.00532214	     -0.01212952	      0.02656944	     -0.02974622	     -0.02277380	      0.01406860	     -0.00713744	     -0.01510002	      0.03069512	     -0.03717246
      0.46666667	     -0.31468317	      0.13328494	     -0.13328494	      0.31468317	     -0.06371694	      0.51493789	      0.23146104	     -0.23146104	     -0.51493789	      0.06371694	    101.35553953	     74.50403650	     -1.76898788	    -36.52801313	     30.43872814	     79.70797302	      0.33915198	     -0.61489237	      0.36612901	     -0.30744619	     39.28015263	    -15.95466632	     -1.72877148	     10.31863407	     98.66154874	     13.03848007	     81.82772835	     68.95679080	     94.95140581	      1.80779629	     83.17246041	     50.39343674	     96.05908499	    -13.38865464	     89.84767866	     42.35525459	     97.26244647	    -14.16145142	     92.72639368	      5.41756608	      0.00090682	     -0.03108874	     -0.00486195	      0.01484508	     -0.01846883	     -0.00212582	      0.00166048	     -0.06870826	     -0.00647091	      0.01202130	     -0.18244520	     -0.00007462	     -0.00956493	      0.00323883	     -0.00056590	      0.00031250	      0.00012500	      0.00062501	      0.00040000	      0.00120001	      0.00067501	     -0.00001127	     -0.00012483	     -0.00014979	      0.00244208	      0.00856797	      0.00596033	     -0.00798850	      0.01928828	     -0.01829490	      0.00244208	      0.00856797	      0.00596033	      0.00053809	      0.01788098	     -0.00939579	      0.00388448	      0.00476454	      0.01581043	      0.00000000	      0.00742129	      0.00000000	     -0.00699511	     -0.03232650	     -0.00611711	      0.02148688	     -0.00098549	     -0.01091964	     -0.00086921	      0.01456969	     -0.00596033	      0.00240069	      0.02102671	     -0.01738429	     -0.00583615	      0.01262431	     -0.00533946	     -0.01216900	      0.02665591	     -0.02984303	     -0.02284792	      0.01411439	     -0.00716067	     -0.01514917	      0.03079503	     -0.03729344
